# xmcd
#
# Track frame offsets:
#	150
#	30940
#	42320
#	64912
#	77932
#	98212
#	115987
#	138135
#	156637
#	171050
#	189402
#	212810
#	240265
#
# Disc length: 3446 seconds
#
# Revision: 1
# Processed by: cddbd v1.5.2PL0 Copyright (c) Steve Scherf et al.
# Submitted via: audiograbber 1.83.01
#
DISCID=ab0d740d
DTITLE=Kleinholz Blues Band - Neuigkeiten
DYEAR=1992
DGENRE=Blues
TTITLE0=Neuigkeiten
TTITLE1=Strandverachter Blues
TTITLE2=Little Boy
TTITLE3=Leck- mich- Blues
TTITLE4=Abfahrt Schlossallee
TTITLE5=Vamos
TTITLE6=Showdown Blues
TTITLE7=Bumann Blues
TTITLE8=Kiel Forever
TTITLE9=Susi
TTITLE10=Karriere
TTITLE11=Sunrise
TTITLE12=Nord- Ostsee- Kanal
EXTD=
EXTT0=
EXTT1=
EXTT2=
EXTT3=
EXTT4=
EXTT5=
EXTT6=
EXTT7=
EXTT8=
EXTT9=
EXTT10=
EXTT11=
EXTT12=
PLAYORDER=
